<svg width="38" height="43" viewBox="0 0 38 43" fill="none" xmlns="http://www.w3.org/2000/svg">
<path d="M34.9588 4.10411H31.1344C31.1344 3.10615 31.1344 2.15809 31.1344 1.16013C31.1344 -0.38671 28.1926 -0.38671 28.1926 1.16013C28.1926 2.15809 28.1926 3.10615 28.1926 4.10411H9.95321C9.95321 3.10615 9.95321 2.15809 9.95321 1.16013C9.95321 -0.38671 7.01138 -0.38671 7.01138 1.16013C7.01138 2.15809 7.01138 3.10615 7.01138 4.10411H3.08893C1.37286 4.10411 0 5.50126 0 7.24769V39.6814C0 41.4279 1.37286 42.825 3.08893 42.825H26.6727H28.4868H28.83C29.0261 42.825 29.2713 42.7751 29.6145 42.5256C30.0067 42.2761 30.497 41.8769 31.2325 41.1285L36.6749 35.5898C36.9691 35.2904 37.1652 35.0908 37.2142 35.0409L37.5575 34.6916C37.6555 34.5918 37.7045 34.4421 37.8026 34.2425C37.9497 33.8434 37.9987 33.1947 37.9987 32.047V31.1988V7.24769C38.0478 5.50126 36.6749 4.10411 34.9588 4.10411ZM3.08893 7.098H7.01138C7.01138 7.19779 7.01138 7.29759 7.01138 7.39739C7.01138 8.94423 9.95321 8.94423 9.95321 7.39739C9.95321 7.29759 9.95321 7.19779 9.95321 7.098H28.1436C28.1436 7.19779 28.1436 7.29759 28.1436 7.39739C28.1436 8.94423 31.0854 8.94423 31.0854 7.39739C31.0854 7.29759 31.0854 7.19779 31.0854 7.098H34.9098C34.9588 7.098 35.0079 7.1479 35.0079 7.19779V11.6886H2.94184V7.19779C2.94184 7.19779 3.0399 7.098 3.08893 7.098ZM29.3693 39.9309V33.8933H34.9098L29.3693 39.9309ZM29.7616 31.1988C28.0455 31.1988 26.6727 32.5959 26.6727 34.3423V39.8311H3.08893C3.0399 39.8311 2.99087 39.7812 2.99087 39.7313V14.433H35.1059V31.1489H29.7616V31.1988Z" fill="white"/>
<path d="M23.8779 18.0753C21.0341 18.0753 18.7297 20.4205 18.7297 23.2647C18.7297 20.3706 16.4252 18.0254 13.6305 18.0254C10.7867 18.0254 8.48228 20.3706 8.48228 23.2148C8.48228 23.2148 7.10942 28.9531 18.7297 34.0427C30.3499 29.003 28.9771 23.2148 28.9771 23.2148C28.9771 20.4205 26.7217 18.0753 23.8779 18.0753Z" fill="white"/>
</svg>
