<svg width="485" height="262" viewBox="0 0 485 262" fill="none" xmlns="http://www.w3.org/2000/svg">
<path d="M188.051 2.71652C163.117 9.38319 146.184 22.4499 136.184 42.8499C133.251 48.9832 130.051 57.9165 129.117 62.7165C128.317 67.5165 127.384 71.5165 127.251 71.7832C127.117 72.0499 124.317 70.3165 120.984 68.0499C91.5173 48.1832 55.5173 50.8499 25.5173 75.1165C-2.48268 97.7832 -7.81602 132.85 11.384 168.983C18.7173 182.983 26.3173 192.717 39.5173 205.517C52.7173 218.05 62.984 225.117 81.9173 234.183C112.984 249.117 150.717 258.183 192.451 260.85L206.851 261.783L211.517 257.25C214.184 254.717 220.317 247.65 225.384 241.383C254.317 205.117 276.317 160.45 282.317 125.517C286.584 101.383 282.984 66.3165 274.451 46.3165C271.251 39.1165 268.451 38.3165 259.384 42.7165C249.651 47.3832 249.784 46.8499 255.251 57.2499C262.984 72.0499 265.651 84.3165 265.784 105.383C265.784 124.717 263.784 136.05 256.451 155.383C247.651 179.25 228.184 211.65 211.117 231.383L201.917 242.05L183.251 241.917C132.051 241.383 75.384 219.25 49.2506 189.25C32.4506 170.05 25.1173 154.05 24.984 135.917C24.8506 125.25 25.1173 123.65 29.784 114.317C36.0506 101.65 47.9173 90.0499 61.6506 83.5165C75.384 76.9832 81.9173 75.6499 97.384 76.3165C110.051 76.8499 111.251 77.1165 122.717 82.9832C130.184 86.7165 134.984 88.5832 135.251 87.6499C135.517 86.7165 136.451 82.9832 137.251 79.3832C142.717 55.9165 162.851 36.7165 188.717 30.0499C192.984 28.9832 198.851 28.0499 201.517 28.0499C205.784 28.0499 206.851 27.3832 210.051 22.3165C212.184 19.2499 217.117 13.5165 221.117 9.64986C225.117 5.78319 227.917 2.18319 227.517 1.78319C227.117 1.24986 220.184 0.716523 212.317 0.449856C201.251 0.183189 195.784 0.58319 188.051 2.71652Z" fill="white"/>
<path d="M258.717 1.38319C232.984 7.51652 213.651 29.1165 204.584 61.7832C201.917 71.5165 200.984 78.1832 200.451 94.0499C199.651 116.983 201.384 130.183 208.051 150.717C212.717 165.117 224.984 191.517 226.317 190.183C226.851 189.783 229.117 185.917 231.384 181.783L235.651 174.317L232.051 166.183C221.917 143.517 218.317 127.25 218.317 104.717C218.584 69.6499 230.717 44.3165 252.717 32.9832C259.784 29.3832 262.317 28.8499 274.317 28.3165C289.784 27.6499 301.117 30.3165 315.117 37.6499C329.651 45.3832 342.984 62.9832 346.851 79.3832C347.651 82.9832 348.584 86.7165 348.851 87.6499C349.117 88.5832 353.917 86.7165 361.384 82.9832C373.117 76.9832 373.917 76.7165 387.384 76.3165C403.784 75.6499 414.317 78.3165 427.917 86.3165C438.051 92.3165 450.451 105.25 454.584 113.917C465.117 136.45 458.851 161.383 435.784 188.183C410.051 218.183 356.584 239.917 302.317 242.317L283.917 243.117L279.917 239.25C277.651 237.117 272.184 230.717 267.651 224.983C263.251 219.383 259.251 214.717 258.851 214.717C258.451 214.717 256.051 218.05 253.651 222.05L249.251 229.383L258.451 241.117C263.651 247.517 269.917 254.717 272.584 257.25L277.251 261.783L291.651 260.85C343.784 257.517 393.784 242.717 425.517 221.25C435.784 214.45 452.717 198.317 460.984 187.65C475.117 169.383 484.051 146.317 484.051 128.05C484.051 108.717 478.051 94.1832 464.584 80.5832C436.451 52.1832 395.384 46.8499 364.184 67.3832C360.317 70.0499 356.851 71.9165 356.717 71.7832C356.584 71.5165 355.784 67.5165 354.984 62.7165C351.117 41.2499 335.117 19.6499 315.917 10.1832C297.917 1.38319 274.184 -2.21681 258.717 1.38319Z" fill="white"/>
</svg>
