<svg width="81" height="73" viewBox="0 0 81 73" fill="none" xmlns="http://www.w3.org/2000/svg">
<path d="M49.999 28.0872C45.0281 28.0872 41 32.1869 41 37.1589C41 32.0997 36.9719 28 32.0867 28C27.1158 28 23.0877 32.0997 23.0877 37.0716C23.0877 37.0716 20.6879 47.1028 41 56C61.3121 47.19 58.9123 37.0716 58.9123 37.0716C58.9123 32.1869 54.9699 28.0872 49.999 28.0872Z" fill="white"/>
<path d="M68.2975 73H12.7034C11.2102 73 10 71.798 10 70.3149V33.6851C10 32.202 11.2102 31 12.7034 31C14.1965 31 15.4068 32.202 15.4068 33.6851V67.6297H65.5932V33.6851C65.5932 32.202 66.8035 31 68.2966 31C69.7898 31 71 32.202 71 33.6851V70.3149C71.0009 71.7988 69.7907 73 68.2975 73Z" fill="white"/>
<path d="M78.2662 31.9989C77.7383 31.9989 77.2041 31.8417 76.7336 31.5124L40.4994 6.1994L4.2653 31.5134C3.01663 32.3871 1.31928 32.0513 0.472881 30.7706C-0.37534 29.4881 -0.0513418 27.7434 1.19551 26.8725L38.965 0.485512C39.8924 -0.161837 41.1083 -0.161837 42.0348 0.485512L79.8043 26.8725C81.0511 27.7434 81.3751 29.489 80.5278 30.7706C79.9981 31.5686 79.1399 31.9989 78.2662 31.9989Z" fill="white"/>
</svg>
